<svg width="582" height="402" xmlns="http://www.w3.org/2000/svg" xmlns:xlink="http://www.w3.org/1999/xlink">
 <!-- Created with Method Draw - http://github.com/duopixel/Method-Draw/ -->

 <g>
  <title transform="translate(-62.00008010864258,-54.00006866455078) translate(62.00008010864258,49.000064849853516) translate(-57.00007247924805,-25.000032424926758) translate(55.00007247924805,26.00003433227539) translate(62.00008010864258,13.000017166137695) translate(-61.00008010864258,-13.000017166137695) ">background</title>
  <rect fill="#fff" id="canvas_background" height="404" width="584" y="-5.000002" x="-2"/>
  <g display="none" overflow="visible" y="0" x="0" height="100%" width="100%" id="canvasGrid">
   <rect fill="url(#gridpattern)" stroke-width="0" y="-3.000002" x="0" height="400" width="580"/>
  </g>
 </g>
 <g stroke="null">
  <title stroke="null" transform="translate(-133.0001678466797,-42.00005340576172) translate(-12.000015258789062,7.000009059906006) translate(41.00005340576172,27.00003433227539) translate(36.654502868652344,52.708797454833984) scale(1.4712961912155151) translate(-36.654502868652344,-52.708797454833984) ">Layer 1</title>
  <defs stroke="null" transform="translate(-133.0001678466797,-42.00005340576172) translate(-12.000015258789062,7.000009059906006) translate(41.00005340576172,27.00003433227539) translate(36.654502868652344,52.708797454833984) scale(1.4712961912155151) translate(-36.654502868652344,-52.708797454833984) ">
   <linearGradient stroke="null" xlink:href="#svg_73" id="svg_51" x1="0.324367" y1="0.935622" x2="1" y2="0.5"/>
   <linearGradient stroke="null" id="svg_73">
    <stop stroke="null" stop-color="#909ca9" offset="0" id="svg_75"/>
    <stop stroke="null" stop-color="#ededee" offset="1" id="svg_74"/>
   </linearGradient>
   <linearGradient stroke="null" xlink:href="#svg_70" id="svg_49" x1="0" y1="0.5" x2="1" y2="0.5"/>
   <linearGradient stroke="null" id="svg_70">
    <stop stroke="null" stop-color="#939fab" offset="0" id="svg_72"/>
    <stop stroke="null" stop-color="#dcdee1" offset="1" id="svg_71"/>
   </linearGradient>
   <radialGradient stroke="null" xlink:href="#svg_67" id="svg_47" gradientUnits="userSpaceOnUse" gradientTransform="matrix(-0.6435342,-0.09731428,0.19435637,-1.2852688,-377.15369,-44.777181)" cx="-1259.0977" cy="-245.42754" fx="-1259.0977" fy="-245.42754" r="414.15625"/>
   <linearGradient stroke="null" id="svg_67">
    <stop stroke="null" stop-color="#ee352c" offset="0" id="svg_69"/>
    <stop stroke="null" stop-color="#a91d22" offset="1" id="svg_68"/>
   </linearGradient>
  </defs>
  <metadata stroke="null" transform="translate(-133.0001678466797,-42.00005340576172) matrix(0.05493882591425037,0,0,0.05493882591425037,25.39251807785149,25.182678860065437) " id="svg_66">image/svg+xml</metadata>
  <g stroke="null" id="svg_77">
   <g stroke="null" transform="matrix(0.9813307977290183,0,0,0.9813307977290183,-6450.7354986649225,-4483.256238280094) " id="svg_40">
    <g stroke="null" id="svg_41" transform="matrix(0.87205879,0,0,0.87205879,-814.02071,35.444919) ">
     <g stroke="null" id="svg_64" transform="matrix(0.93645766,0,0,0.93645766,689.44587,192.23533) "/>
     <g stroke="null" id="svg_53" transform="matrix(1.3287544,0,0,1.3287544,-380.99295,208.98218) ">
      <path fill="#231f1f" fill-rule="nonzero" d="m6777.118728,4089.808605c0,-0.48592 -0.1346,-0.82982 -0.4035,-1.04663c-0.3067,-0.25401 -0.8298,-0.37381 -1.555,-0.37381l-1.0467,0l0,2.87073l1.2635,0c1.1587,0 1.7419,-0.48595 1.7419,-1.45034m1.6222,5.98076l-1.4278,0l-0.9196,-2.01849c-0.4635,-1.00925 -0.9644,-1.51763 -1.5026,-1.51763l-0.7776,0l0,3.53612l-1.1812,0l0,-8.41792l2.3774,0c1.0466,0 1.8391,0.23915 2.3848,0.71024c0.4561,0.40354 0.6878,0.93448 0.6878,1.58487c0,0.57567 -0.1869,1.0691 -0.5607,1.47277c-0.3738,0.4112 -0.9046,0.68034 -1.5774,0.82235l0,0.036c0.471,0.10448 0.9345,0.62052 1.398,1.54753l1.0989,2.24278l0,0.00138zm2.6241,-4.11922c0,-1.66716 -0.5681,-3.05022 -1.697,-4.16413c-1.1289,-1.11391 -2.5044,-1.66711 -4.1342,-1.66711c-1.6821,0 -3.0726,0.56067 -4.1791,1.68206c-1.1139,1.12139 -1.6671,2.50445 -1.6671,4.14918c0,1.67458 0.5757,3.08007 1.7195,4.20146c1.1288,1.10644 2.5044,1.65968 4.1267,1.65968c1.6148,0 2.9904,-0.56072 4.1267,-1.68211c1.1364,-1.12139 1.7045,-2.51192 1.7045,-4.17903m0.7925,-0.036c0,1.85401 -0.643,3.40903 -1.9213,4.67246c-1.2784,1.26344 -2.8558,1.8914 -4.7323,1.8914c-1.8914,0 -3.4689,-0.613 -4.7174,-1.83906c-1.2484,-1.23354 -1.8764,-2.78855 -1.8764,-4.67247c0,-1.84658 0.6354,-3.40155 1.9064,-4.67247c1.2709,-1.26343 2.8483,-1.89891 4.7397,-1.89891c1.8541,0 3.409,0.60557 4.665,1.81668c1.2933,1.24101 1.9363,2.81092 1.9363,4.70237" id="svg_63"/>
      <path fill="#231f1f" fill-rule="nonzero" d="m6610.943428,4113.552225l-3.8501,0l0,-22.09142c0,-1.74192 0.1045,-3.87256 0.3139,-6.37701l-0.09,0c-0.3662,1.4653 -0.6952,2.52688 -0.9868,3.18479l-11.2139,25.28364l-1.884,0l-11.24379,-25.09678c-0.32157,-0.70272 -0.65039,-1.83159 -0.98682,-3.37165l-0.0896,0c0.1198,1.31578 0.1869,3.45389 0.1869,6.42187l0,22.04656l-3.72303,0l0,-32.90165l5.09861,0l10.09253,22.94366c0.7625,1.72697 1.2634,3.04274 1.4952,3.94732l0.1572,0c0.6578,-1.80173 1.1812,-3.14736 1.5848,-4.03703l10.3019,-22.85395l4.8369,0" id="svg_62"/>
      <path fill="#231f1f" fill-rule="nonzero" d="m6622.830228,4090.062795l0,23.48943l-3.7604,0l0,-23.48943l3.7604,0zm0.6429,-8.41793c0,0.68781 -0.2468,1.26344 -0.7251,1.74192c-0.4785,0.47096 -1.0691,0.7102 -1.7569,0.7102c-0.6728,0 -1.2485,-0.23195 -1.7344,-0.68777c-0.4785,-0.45605 -0.7177,-1.04663 -0.7177,-1.76435c0,-0.69524 0.2391,-1.27087 0.7177,-1.7344c0.4859,-0.471 1.0616,-0.70272 1.7344,-0.70272c0.6878,0 1.2784,0.2315 1.7569,0.70272c0.4784,0.46353 0.7251,1.03916 0.7251,1.7344" id="svg_61"/>
      <path fill="#231f1f" fill-rule="nonzero" d="m6646.274728,4112.475685c-1.8016,1.09897 -3.9547,1.65216 -6.4442,1.65216c-3.3642,0 -6.078,-1.11391 -8.1488,-3.34922c-2.0185,-2.17549 -3.0277,-4.97151 -3.0277,-8.39549c0,-3.85756 1.1064,-6.96758 3.3193,-9.33746c2.2054,-2.36983 5.1808,-3.55851 8.9113,-3.55851c2.0484,0 3.8576,0.39633 5.435,1.19615l0,3.85009c-1.7419,-1.21859 -3.6109,-1.83159 -5.5995,-1.83159c-2.3848,0 -4.3285,0.82982 -5.8462,2.49697c-1.5774,1.71197 -2.3624,3.99213 -2.3624,6.84049c0,2.73616 0.7177,4.8967 2.168,6.4891c1.4429,1.59239 3.3792,2.38483 5.8163,2.38483c2.0485,0 3.9773,-0.67282 5.7789,-2.0185" id="svg_60"/>
      <path fill="#231f1f" fill-rule="nonzero" d="m6664.217028,4093.868065c-0.6579,-0.50839 -1.6148,-0.7551 -2.8708,-0.7551c-1.525,0 -2.8109,0.68781 -3.85,2.06339c-1.1812,1.54002 -1.7644,3.67813 -1.7644,6.39939l0,11.97648l-3.7679,0l0,-23.49691l3.7679,0l0,4.84442l0.09,0c0.5458,-1.71201 1.398,-3.03522 2.5493,-3.96974c1.0691,-0.85225 2.2653,-1.28587 3.596,-1.28587c0.9943,0 1.7493,0.11214 2.2502,0.32157" id="svg_59"/>
      <path fill="#231f1f" fill-rule="nonzero" d="m6685.179628,4101.852365c0,-3.01283 -0.6804,-5.30795 -2.041,-6.88534c-1.3157,-1.51016 -3.1548,-2.27269 -5.5322,-2.27269c-2.34,0 -4.2089,0.77001 -5.6144,2.29512c-1.4877,1.6372 -2.2278,3.95474 -2.2278,6.95262c0,2.81841 0.7102,5.01633 2.1306,6.59377c1.4279,1.58492 3.3268,2.37736 5.7116,2.37736c2.482,0 4.366,-0.79992 5.6668,-2.40726c1.2709,-1.56249 1.9064,-3.77536 1.9064,-6.65358m3.8575,-0.13466c0,3.74546 -1.0615,6.75077 -3.1698,9.01598c-2.1082,2.25773 -4.9565,3.39407 -8.53,3.39407c-3.5361,0 -6.3321,-1.13634 -8.403,-3.39407c-2.0185,-2.19045 -3.0277,-5.07614 -3.0277,-8.64965c0,-4.08936 1.1513,-7.2442 3.4464,-9.4795c2.1232,-2.07831 4.9715,-3.11746 8.53,-3.11746c3.5063,0 6.2425,1.08401 8.2012,3.25951c1.9661,2.16801 2.9529,5.15837 2.9529,8.97112" id="svg_58"/>
      <path fill="#231f1f" fill-rule="nonzero" d="m6707.689628,4107.264935c0,1.92878 -0.7177,3.52865 -2.1605,4.79209c-1.57,1.38305 -3.7231,2.07082 -6.4443,2.07082c-2.2353,0 -4.1716,-0.47843 -5.8237,-1.42791l0,-4.03699c1.8316,1.50268 3.865,2.25026 6.1003,2.25026c2.9829,0 4.4706,-1.09149 4.4706,-3.28194c0,-0.91953 -0.3288,-1.67463 -0.9868,-2.27268c-0.6579,-0.5981 -1.9363,-1.3083 -3.8501,-2.15307c-1.9737,-0.85976 -3.3716,-1.74191 -4.2015,-2.66145c-0.9943,-1.08401 -1.4877,-2.50445 -1.4877,-4.24632c0,-1.95873 0.77,-3.58098 2.3176,-4.87432c1.54,-1.29335 3.5286,-1.93626 5.9657,-1.93626c1.8616,0 3.5362,0.36616 5.0239,1.09896l0,3.7828c-1.5475,-1.11392 -3.3193,-1.67459 -5.3229,-1.67459c-1.2559,0 -2.2577,0.30671 -3.0053,0.91953c-0.7551,0.61301 -1.1289,1.39801 -1.1289,2.3624c0,1.03916 0.3139,1.85402 0.942,2.42969c0.5682,0.53824 1.7419,1.18868 3.5361,1.95121c2.0036,0.84477 3.4464,1.70453 4.3361,2.59416c1.1438,1.13634 1.7194,2.57174 1.7194,4.31361" id="svg_57"/>
      <path fill="#231f1f" fill-rule="nonzero" d="m6730.678128,4101.852365c0,-3.01283 -0.6802,-5.30795 -2.0409,-6.88534c-1.3158,-1.51016 -3.1623,-2.27269 -5.5322,-2.27269c-2.3399,0 -4.209,0.77001 -5.6219,2.29512c-1.4802,1.6372 -2.2204,3.95474 -2.2204,6.95262c0,2.81841 0.7103,5.01633 2.1307,6.59377c1.4279,1.58492 3.3268,2.37736 5.7116,2.37736c2.4821,0 4.366,-0.79992 5.6668,-2.40726c1.2709,-1.56249 1.9063,-3.77536 1.9063,-6.65358m3.8576,-0.13466c0,3.74546 -1.0615,6.75077 -3.1697,9.01598c-2.1083,2.25773 -4.9566,3.39407 -8.5376,3.39407c-3.5286,0 -6.3247,-1.13634 -8.3955,-3.39407c-2.0185,-2.19045 -3.0277,-5.07614 -3.0277,-8.64965c0,-4.08936 1.1513,-7.2442 3.4464,-9.4795c2.1231,-2.07831 4.964,-3.11746 8.53,-3.11746c3.5062,0 6.235,1.08401 8.2011,3.25951c1.9662,2.16801 2.953,5.15837 2.953,8.97112" id="svg_56"/>
      <path fill="#231f1f" fill-rule="nonzero" d="m6751.117428,4082.078485c-0.7327,-0.41119 -1.57,-0.62048 -2.5044,-0.62048c-2.6241,0 -3.9399,1.65963 -3.9399,4.97895l0,3.62584l5.5023,0l0,3.19221l-5.5023,0l0,20.29722l-3.7679,0l0,-20.29722l-3.9921,0l0,-3.19221l3.9921,0l0,-3.80527c0,-2.58664 0.8075,-4.61266 2.4073,-6.08539c1.383,-1.26344 3.0726,-1.89892 5.0762,-1.89892c1.1587,0 2.0708,0.13467 2.7287,0.4112" id="svg_55"/>
      <path fill="#231f1f" fill-rule="nonzero" d="m6765.964628,4113.320455c-0.8896,0.50834 -2.0634,0.75506 -3.5361,0.75506c-4.0968,0 -6.1452,-2.30259 -6.1452,-6.92272l0,-13.90526l-4.0371,0l0,-3.19222l4.0371,0l0,-5.73405c1.1886,-0.38146 2.4446,-0.78496 3.7604,-1.2111l0,6.94515l5.9209,0l0,3.19222l-5.9209,0l0,13.26234c0,1.5774 0.2688,2.69131 0.8074,3.3567c0.5307,0.66534 1.4279,1.00177 2.6838,1.00177c0.927,0 1.7419,-0.25401 2.4297,-0.76253" id="svg_54"/>
     </g>
     <path fill="#231f1f" fill-rule="nonzero" d="m9129.036671,5727.704639c0,-0.64567 -0.1789,-1.10263 -0.5362,-1.39071c-0.4075,-0.33752 -1.1026,-0.4967 -2.0662,-0.4967l-1.3908,0l0,3.81449l1.6789,0c1.5396,0 2.3145,-0.64571 2.3145,-1.92714m2.1555,7.94696l-1.8972,0l-1.2219,-2.68208c-0.6159,-1.34105 -1.2814,-2.01656 -1.9966,-2.01656l-1.0332,0l0,4.69864l-1.5695,0l0,-11.18535l3.159,0c1.3906,0 2.4437,0.31777 3.1688,0.94373c0.606,0.53621 0.9139,1.2417 0.9139,2.10591c0,0.76492 -0.2484,1.42057 -0.745,1.95695c-0.4967,0.54638 -1.202,0.904 -2.096,1.0927l0,0.0478c0.6258,0.13883 1.2417,0.82452 1.8576,2.05629l1.4601,2.9801l0,0.00187zm3.4868,-5.47344c0,-2.21524 -0.7548,-4.05299 -2.2549,-5.5331c-1.5,-1.48011 -3.3277,-2.21518 -5.4933,-2.21518c-2.2351,0 -4.0827,0.74499 -5.553,2.23504c-1.4801,1.49006 -2.2152,3.3278 -2.2152,5.51324c0,2.22511 0.765,4.09266 2.2848,5.58271c1.4999,1.47019 3.3278,2.20531 5.4834,2.20531c2.1457,0 3.9735,-0.74506 5.4834,-2.23511c1.51,-1.49005 2.2648,-3.33773 2.2648,-5.55291m1.0531,-0.0478c0,2.46352 -0.8544,4.52976 -2.553,6.20855c-1.6986,1.6788 -3.7946,2.51321 -6.288,2.51321c-2.5132,0 -4.6094,-0.81453 -6.2683,-2.44366c-1.6588,-1.63907 -2.4933,-3.7053 -2.4933,-6.20857c0,-2.45365 0.8443,-4.51982 2.5332,-6.20856c1.6887,-1.67879 3.7847,-2.52319 6.2979,-2.52319c2.4636,0 4.5297,0.80466 6.1986,2.41392c1.7185,1.649 2.5729,3.73503 2.5729,6.2483" id="svg_52"/>
     <g stroke="null" id="svg_45" transform="matrix(0.65282401,0,0,0.65282401,1153.1248,109.92721) ">
      <path stroke="null" fill="url(#svg_51)" id="svg_50" d="m11842.510489,8122.043999l-132.3442,43.15889l-115.05546,50.81949l-32.23313,8.51875c-8.17177,7.76757 -16.8442,15.65704 -26.07959,23.69344c-10.15197,8.83403 -19.69921,16.83977 -26.95861,22.62598c-8.0837,6.44323 -20.10328,18.36933 -26.2469,26.01673c-9.14014,11.37738 -16.28769,23.50961 -19.36084,32.84011c-5.52889,16.78653 -2.8351,33.78858 7.82805,49.47993c13.62116,20.04417 40.7371,40.40934 72.27332,54.27304c16.08642,7.07173 43.2321,16.18811 63.58722,21.32828c33.92184,8.56609 99.48216,17.87306 135.58835,19.25615c7.32269,0.28037 17.07093,0.25405 17.51894,-0.0419c0.79242,-0.52337 6.41334,-11.16652 12.93511,-24.4888c22.19045,-45.32961 38.24499,-87.82466 46.88454,-124.11845c5.23117,-21.97568 9.30946,-51.27956 11.9514,-86.02475c0.73997,-9.73283 1.00822,-42.19356 0.43951,-53.22651c-0.92537,-17.95348 -2.50678,-32.58669 -5.04424,-46.94733c-0.37226,-2.10481 -0.50923,-3.95573 -0.31399,-4.12333c0.36798,-0.31586 1.61798,-0.71689 17.87473,-5.44196l-3.24421,-7.5978l0,0.00004zm-30.24475,17.74914c1.20273,0 4.40105,30.67062 5.23265,50.12878c0.17669,4.13457 0.14099,6.78152 -0.10462,6.78152c-0.78993,0 -16.94869,-9.48862 -28.40285,-16.68169c-10.00288,-6.28166 -28.98503,-18.89586 -32.00292,-21.26549c-0.95222,-0.74772 -0.85162,-0.78423 7.32578,-3.60006c13.91339,-4.79103 46.90054,-15.36306 47.95196,-15.36306zm-67.41748,22.12364c0.8551,-0.002 3.18352,1.28312 8.68623,4.73032c20.64212,12.93129 48.59495,28.48887 60.57315,33.71919c3.71405,1.62171 4.13809,0.99331 -4.41633,6.80245c-18.2344,12.38245 -40.90361,24.5574 -68.73608,36.92157c-4.85087,2.15488 -8.9601,3.91402 -9.12574,3.91402c-0.1657,0 0.37575,-2.46057 1.19301,-5.48381c6.7424,-24.94123 10.54708,-50.11594 10.65364,-70.30588c0.0528,-9.98517 0.0555,-10.03807 1.00467,-10.27692c0.0445,-0.0112 0.11045,-0.0208 0.16745,-0.0209l0,-0.00004zm-13.87696,5.29545c0.59745,0.60014 0.16483,22.97565 -0.56509,29.0726c-1.7512,14.62678 -4.61304,28.15457 -9.18857,43.53564c-1.09334,3.67531 -2.11824,6.8435 -2.2814,7.03268c-0.39745,0.46078 -14.07996,-12.87072 -18.6283,-18.14683c-7.77131,-9.01483 -13.91915,-17.9699 -18.39796,-26.79116c-2.27631,-4.48349 -5.90618,-13.33805 -5.56754,-13.58396c1.53714,-1.11625 54.25332,-21.49615 54.62886,-21.11897zm-65.36622,25.76556c0.12304,0.0123 0.21861,0.0457 0.27206,0.10465c0.19732,0.2174 0.89409,1.84262 1.54887,3.621c3.18701,8.65635 10.35364,21.51606 16.57703,29.74238c6.79451,8.98129 15.65307,18.55091 23.06552,24.90741c2.38006,2.04101 4.60058,3.94598 4.91872,4.22798c0.63469,0.56261 0.84808,0.46722 -15.46774,6.65593c-18.90941,7.17244 -39.50324,14.35475 -63.14758,21.99806c-9.01047,2.91269 -16.63651,5.37392 -16.93289,5.48382c-0.90065,0.33395 -0.62443,-0.22068 2.00934,-4.33264c11.74846,-18.3418 29.5459,-54.22153 39.496,-79.59906c1.72589,-4.40154 3.36832,-8.80985 3.66289,-9.79552c0.43275,-1.448 0.85919,-1.94051 2.21864,-2.55353c0.75197,-0.33911 1.40989,-0.49735 1.77914,-0.46048zm-20.03062,8.26759c0.26617,0.23414 -4.80586,10.9457 -9.79552,20.67943c-9.67797,18.87958 -20.34802,37.45869 -34.51459,60.13361c-2.44429,3.91242 -4.69682,7.48919 -5.00238,7.93269c-0.50313,0.73036 -0.70936,0.48967 -2.2605,-2.59539c-3.39136,-6.74515 -6.2327,-15.25552 -7.70246,-23.17017c-1.45456,-7.8331 -1.20714,-21.39417 0.5442,-29.80517c1.30111,-6.24889 1.24371,-6.11077 4.18612,-7.61874c12.72165,-6.51994 54.13081,-25.92074 54.54513,-25.55626zm172.53089,7.01175l0,4.24891c-0.0214,22.31631 -2.40351,52.86892 -5.86057,75.16178c-0.60662,3.91204 -1.13193,7.13954 -1.17211,7.17919c-0.0399,0.0395 -2.85983,-0.78685 -6.25822,-1.84189c-15.01651,-4.6618 -31.29677,-11.6262 -45.98456,-19.67476c-9.7266,-5.33 -23.7947,-13.96405 -23.40034,-14.35839c0.10717,-0.10722 4.25062,-2.30294 9.20947,-4.87683c19.6404,-10.19451 38.40192,-21.18544 54.71251,-32.08661c6.11971,-4.09005 15.27646,-10.71038 17.30964,-12.49557l1.44418,-1.25583zm-248.06945,29.57493c0.40776,-0.0196 0.30422,0.75423 -0.33489,4.43729c-0.44433,2.56146 -0.9466,7.40004 -1.13018,10.7374c-0.80454,14.62803 1.56768,25.42028 8.83264,40.18674c2.01986,4.10553 3.59993,7.52788 3.51634,7.59781c-0.72738,0.60887 -66.88032,19.96701 -87.67824,25.66091c-6.16505,1.68785 -11.55335,3.17468 -11.9932,3.30704c-0.72168,0.21724 -0.78598,0.0601 -0.5233,-1.63259c2.27799,-14.67589 13.47301,-33.93791 29.11443,-50.10785c10.39893,-10.75028 18.72529,-17.11825 32.88201,-25.20044c10.16014,-5.80048 25.93974,-14.50561 27.10515,-14.94445c0.0783,-0.0295 0.15104,-0.039 0.20924,-0.0419l0,0.00004zm156.03764,27.94235c0.0628,-0.0752 2.51368,1.2368 5.44196,2.93028c21.36749,12.35737 51.18459,23.94792 76.60598,29.76331l2.30237,0.52327l-3.16049,1.75817c-13.27957,7.36881 -57.0128,25.56519 -101.68091,42.32167c-6.52063,2.44614 -12.88327,4.84452 -14.12812,5.3373c-1.24485,0.49277 -2.2605,0.83065 -2.2605,0.73257c0,-0.0981 1.84243,-3.64405 4.1024,-7.8699c12.53953,-23.44641 25.05657,-51.93851 31.47962,-71.70823c0.65484,-2.01549 1.23473,-3.71321 1.29769,-3.78844zm-15.90725,5.21172c0.0686,0.0686 -0.71258,2.16894 -1.73728,4.64659c-8.71744,21.07977 -20.13898,44.07627 -34.70286,69.9082c-3.70629,6.57395 -6.83047,11.94122 -6.94896,11.93044c-0.11862,-0.0108 -3.13302,-1.79443 -6.69779,-3.97681c-21.21318,-12.9868 -39.98213,-28.97251 -52.3056,-44.51938l-1.75817,-2.19772l9.14664,-2.51167c32.62555,-8.93767 60.29345,-18.49568 87.80389,-30.34937c3.8955,-1.67848 7.13161,-2.99883 7.20013,-2.93028zm98.81332,34.49363c0.0469,0.01 0.0628,0.0426 0.0628,0.0837c0,2.22372 -5.04658,22.80235 -9.25132,37.696c-3.52706,12.49334 -6.48795,22.26528 -11.9723,39.57976c-2.42219,7.64702 -4.50166,13.88841 -4.6257,13.85606c-0.12398,-0.0323 -0.70488,-0.1439 -1.29763,-0.25117c-29.71937,-5.37841 -56.33827,-12.87864 -81.27354,-22.89807c-6.97609,-2.80315 -17.04984,-7.26544 -17.58171,-7.78618c-0.18017,-0.17646 5.84389,-3.01436 13.37469,-6.30011c45.54156,-19.87009 92.7275,-42.49814 108.86,-52.20091c1.94035,-1.16701 3.37683,-1.84667 3.70469,-1.7791l0.00002,0.00002zm-228.10159,7.80711c0.2442,0.23133 -12.49486,18.4671 -30.28661,43.3682c-6.18387,8.65476 -13.44816,18.85582 -16.13752,22.66783c-2.68937,3.81203 -6.75754,9.84571 -9.06292,13.41652l-4.20702,6.48848l-4.47921,-3.7675c-5.25569,-4.41283 -14.45517,-13.78206 -18.62817,-18.98406c-8.5875,-10.7047 -14.40634,-21.97023 -16.70268,-32.31684c-1.06013,-4.77661 -1.09134,-7.21066 -0.0837,-7.51408c1.4563,-0.43858 28.17205,-6.72799 53.22654,-12.53743c13.91701,-3.22699 30.00678,-7.00436 35.77036,-8.39317c5.76372,-1.38878 10.53462,-2.48127 10.59095,-2.42795l-0.00002,0zm12.80952,4.89776l3.22325,3.60006c14.41063,16.05315 29.06627,28.03245 46.94736,38.36579c3.15707,1.82441 5.56326,3.41056 5.35824,3.53727c-0.74426,0.46 -61.83334,22.18032 -90.0853,32.02381c-15.9331,5.55138 -29.02126,10.07794 -29.09353,10.06762c-0.0723,-0.0106 -0.97479,-0.60081 -1.98837,-1.31863l-1.84189,-1.31863l2.88835,-4.16518c9.37383,-13.57822 21.15136,-28.51041 46.92647,-59.52662l17.66542,-21.26549zm79.82924,57.05681c0.0707,-0.0882 4.53708,1.49528 9.94207,3.51634c13.0284,4.87154 23.25352,8.04885 37.08901,11.51183c16.99337,4.25336 41.55116,8.5067 56.09401,9.73272c2.23257,0.18819 3.3722,0.44297 3.014,0.66978c-0.67513,0.42754 -15.40023,5.34585 -26.226,8.74899c-17.18459,5.402 -69.70184,20.91648 -112.5229,33.23779c-7.94351,2.28564 -14.73534,4.2168 -15.09099,4.29078c-0.95912,0.19948 -4.3117,-0.68047 -4.3117,-1.13026c0,-0.21379 2.40109,-3.25252 5.31637,-6.73965c14.39308,-17.21623 28.69146,-36.44489 40.62632,-54.62886c3.2643,-4.97354 5.99921,-9.12129 6.06981,-9.20946zm-17.68632,0.50233c0.12879,0.12882 -6.96618,11.48947 -19.4445,31.14473c-5.26881,8.29909 -11.24331,17.74618 -13.29096,20.99339c-2.04758,3.24725 -5.04799,8.18192 -6.65593,10.98857l-2.93028,5.10706l-1.48604,-0.39768c-3.5858,-0.9708 -28.87947,-9.90623 -35.56112,-12.55836c-8.28115,-3.28696 -16.91132,-7.25644 -23.27483,-10.69553c-7.95208,-4.29764 -18.03755,-10.6749 -17.24681,-10.92578c0.22766,-0.0722 13.91165,-3.81738 30.39123,-8.30944c43.83966,-11.94992 68.08908,-18.815 83.99446,-23.77716c2.97194,-0.92717 5.44784,-1.62666 5.50478,-1.5698zm124.51609,29.19819c0.0944,-0.0205 0.13817,-0.0209 0.14655,0c0.41466,1.03688 -15.8149,45.98847 -21.74693,60.23826c-1.32857,3.19176 -1.82019,3.96509 -2.51167,3.93495c-1.67907,-0.0733 -25.21156,-3.3635 -39.45414,-5.52568c-24.9328,-3.78505 -66.6954,-11.07791 -77.23391,-13.4793l-2.44891,-0.5442l14.94451,-3.36982c32.03205,-7.21707 47.41561,-11.0878 63.022,-15.8654c19.68246,-6.02544 39.17203,-13.53787 58.85684,-22.68877c3.11213,-1.44671 5.76479,-2.5564 6.42566,-2.70004z"/>
      <path stroke="null" fill="url(#svg_49)" id="svg_48" d="m11706.118399,7813.616039c-2.21329,-0.2584 -37.73187,12.5384 -60.55222,21.80969c-30.92132,12.56253 -54.92967,24.5993 -69.74075,34.99596c-5.51288,3.86977 -12.44517,10.82962 -13.45838,13.50023c-0.37916,0.99939 -0.55705,2.16745 -0.56512,3.36983l13.43744,12.68394l31.8773,10.17227l75.93621,13.56303l86.79919,14.92352l0.87908,-7.4513c-0.2626,-0.0414 -0.51109,-0.0842 -0.77443,-0.12558l-11.42811,-1.80003l-2.32329,-4.08147c-11.79701,-20.81606 -24.83366,-46.57511 -32.40057,-64.00577c-5.86027,-13.49938 -11.48771,-29.05026 -14.60955,-40.31233c-1.8541,-6.68868 -2.04712,-7.12176 -3.0768,-7.24199zm-1.67445,5.14893c0.0883,-0.0159 0.13275,-0.0165 0.14651,0c0.0701,0.0839 0.47344,2.87583 0.87909,6.19546c1.70838,13.98057 4.83676,27.53945 9.73273,42.13329c3.68933,10.99713 3.74223,10.35122 -0.64885,9.12574c-10.20664,-2.84851 -55.93699,-10.69829 -89.01783,-15.27933c-5.3303,-0.73814 -9.76678,-1.39454 -9.83739,-1.46515c-0.42002,-0.42002 23.85716,-13.1396 34.61921,-18.14682c13.80301,-6.42205 51.38994,-22.07103 54.12653,-22.56319zm-96.3854,44.77055l3.87216,1.31863c21.23855,7.22952 74.474,17.39861 103.89948,19.8422c3.31964,0.27568 6.11084,0.57143 6.19546,0.64885c0.0846,0.0774 -2.73544,1.58422 -6.25825,3.3489c-14.19511,7.11074 -29.8186,15.77776 -40.62629,22.54225c-3.17389,1.98653 -6.08469,3.58875 -6.46755,3.5582c-0.38286,-0.0305 -2.47593,-0.36679 -4.66753,-0.73257l-3.99774,-0.64884l-10.04669,-9.75366c-17.63706,-17.07029 -31.40719,-30.2763 -36.7332,-35.26806l-5.16985,-4.8559zm-3.93496,3.13959l14.06537,17.56077c7.74292,9.65889 15.50294,19.24456 17.22588,21.30735c1.72293,2.0628 3.05584,3.81094 2.97214,3.87216c-0.39911,0.29195 -20.38542,-3.5993 -30.97728,-6.02801c-10.87353,-2.49331 -15.37086,-3.68678 -22.10271,-5.83964l-5.48382,-1.75817l0.0209,-1.36049c0.0697,-6.74572 8.57225,-16.69555 23.00272,-26.87488l1.27677,-0.87909l0.00003,0zm119.78582,23.92367c0.42188,0.0326 0.8674,0.89008 2.11399,3.621c3.41149,7.47361 14.0307,27.72893 16.59796,31.64706c0.84547,1.29036 2.18584,1.37673 -11.90951,-0.90001c-33.87492,-5.47162 -44.83374,-7.3032 -44.83334,-7.51409c0.00024,-0.12853 1.01589,-0.79393 2.2605,-1.48607c10.49029,-5.8337 21.07471,-13.17639 30.49588,-21.11898c2.25261,-1.89907 4.4172,-3.70835 4.81404,-4.0396c0.16319,-0.13622 0.31985,-0.22016 0.46048,-0.20931z"/>
      <path stroke="null" fill="url(#svg_47)" d="m11562.967599,7882.571009c0,0 -2.19802,3.48486 -0.12559,8.66526c1.28236,3.20557 5.13312,7.05619 9.37691,11.13508c0,0 44.4523,43.36164 49.89855,49.64738c24.62938,28.42583 35.32656,56.41067 36.31462,95.04581c0.63401,24.79275 -4.14775,46.58763 -15.76078,71.91753c-20.81466,45.40038 -64.672,95.4667 -132.40696,151.13988l9.94207,-3.28613c6.39049,-4.78745 15.06889,-9.90061 35.54015,-21.09805c47.14502,-25.7875 100.08704,-49.50759 165.12146,-73.94776c93.56794,-35.16314 247.48095,-76.42006 335.05701,-89.83413l9.12574,-1.40238l-1.40235,-2.19768c-8.00773,-12.44678 -13.47363,-20.12184 -20.05151,-28.25631c-19.20861,-23.75425 -42.46295,-43.13612 -70.95473,-59.08711c-39.15285,-21.91946 -89.93571,-38.95523 -154.13289,-51.71947c-12.13647,-2.41309 -38.71491,-6.96926 -60.34295,-10.33972c-45.8141,-7.13958 -75.36328,-11.96085 -108.00188,-17.64453c-11.70198,-2.03037 -29.17404,-4.96447 -40.77281,-7.47219c-6.04368,-1.30667 -17.52946,-4.02262 -26.45627,-7.0955c-7.36978,-2.90169 -17.74774,-5.70666 -19.96779,-14.16998zm25.7656,25.01203c0.0623,-0.0563 1.73198,0.4602 3.7675,1.15121c3.75137,1.27345 8.70164,2.76425 14.46301,4.37446c4.03609,1.12805 8.47385,2.31161 13.18628,3.51634c6.01455,1.53768 10.98779,2.85882 11.05135,2.93029c0.66583,0.74868 10.76717,32.98709 14.21191,45.35664c1.31478,4.7212 2.31282,8.65475 2.21865,8.74899c-0.0942,0.0942 -1.21478,-1.64411 -2.46981,-3.85123c-11.68618,-20.55124 -30.19298,-41.45042 -51.59396,-58.27079c-2.66753,-2.09661 -4.83493,-3.87661 -4.83493,-3.95591zm49.24966,13.60488c0.51479,-0.0355 2.73384,0.33597 5.3792,0.92095c17.04192,3.76871 47.4716,9.64348 67.04067,12.93511c3.26035,0.54842 5.94429,1.13903 5.94429,1.31866c0,0.17957 -1.21806,0.94995 -2.70002,1.69535c-3.28339,1.6516 -16.56913,9.60416 -21.01432,12.57932c-11.0969,7.42711 -21.07399,15.37699 -28.34003,22.60504c-2.91997,2.9047 -5.36345,5.27452 -5.44195,5.27452c-0.0785,0 -0.58901,-1.69274 -1.13025,-3.76751c-3.63262,-13.92431 -11.14339,-34.48572 -17.87474,-48.9567c-1.08323,-2.32862 -1.96747,-4.3823 -1.96747,-4.56287c0,-0.0228 0.0308,-0.0368 0.10462,-0.0415l0,-0.00037zm86.63178,16.47242c0.57031,0.19008 1.64819,3.55391 3.5582,11.11411c3.65733,14.47668 5.36011,30.73456 4.79307,45.77525c-0.1578,4.18565 -0.4225,8.07258 -0.58606,8.64431l-0.31392,1.04653l-5.16989,-1.67445c-10.65733,-3.40656 -28.06998,-8.53352 -42.99145,-12.66298c-8.47693,-2.34597 -15.42582,-4.44037 -15.42582,-4.64659c0,-0.61968 12.36922,-12.98581 17.68632,-17.68639c10.15647,-8.97872 37.48084,-30.23269 38.44955,-29.90979zm6.88613,0.9837c0.30843,-0.287 41.39844,6.82807 60.07081,10.40254c13.91808,2.66432 34.05452,6.88145 35.2681,7.38847c0.58585,0.24481 -1.49803,1.38042 -8.1839,4.39543c-26.44563,11.92582 -46.0374,22.56968 -65.51277,35.60298c-5.12991,3.43302 -9.39292,6.23732 -9.48153,6.23732c-0.0887,0 -0.16477,-2.86545 -0.16744,-6.36291c-0.0134,-18.99205 -3.80509,-38.1614 -10.75833,-54.35679c-0.74835,-1.7429 -1.30989,-3.23725 -1.23494,-3.30704zm106.24372,21.01432c0.31814,0.31822 -1.02959,8.42094 -2.19768,13.20724c-3.6357,14.89676 -13.26987,37.00704 -25.15858,57.78935c-2.09501,3.66215 -3.96878,6.71554 -4.18612,6.78151c-0.21741,0.0663 -2.92459,-1.3575 -6.00712,-3.16048c-11.62542,-6.79973 -24.78873,-13.23236 -39.24484,-19.19339c-4.03099,-1.66219 -7.46415,-3.14227 -7.6397,-3.30704c-0.65926,-0.61854 31.46482,-21.88711 48.49623,-32.10754c13.6223,-8.17465 35.55556,-20.39189 35.93781,-20.00965zm7.59784,1.19308c0.92509,0 19.14786,4.96815 28.57023,7.78618c23.4703,7.01942 50.54446,16.90985 68.10817,24.88645l7.30478,3.30704l-5.14893,1.19307c-42.97491,9.87268 -79.80901,21.26536 -115.2857,35.66574c-2.9479,1.19656 -5.51316,2.17678 -5.69313,2.17678c-0.18003,0 0.76081,-2.27905 2.0721,-5.0652c10.66409,-22.65816 17.55183,-46.43378 19.33987,-66.62213c0.16276,-1.8376 0.4945,-3.32793 0.73261,-3.32793zm-181.1334,41.63093c0.29102,-0.28747 14.16081,2.96223 21.72596,5.08617c11.37077,3.19236 35.56681,11.28879 35.58202,11.90947c0,0.12076 -2.66659,2.44523 -5.9234,5.16989c-13.08138,10.94419 -25.69962,22.3873 -40.81466,36.98434c-4.48096,4.32737 -8.28865,7.849 -8.47686,7.849c-0.18821,0 -0.27186,-0.63173 -0.16744,-1.40238c2.27631,-16.80322 1.7873,-38.37962 -1.38142,-60.34288c-0.40167,-2.78407 -0.64507,-5.15402 -0.5442,-5.25361zm292.06554,0.27213c0.20802,0.20803 -6.43495,10.59088 -10.56996,16.51421c-6.03345,8.64276 -14.77874,19.98909 -34.70293,45.04264c-10.46568,13.16002 -22.27043,28.05256 -26.24697,33.09131c-3.97649,5.03875 -7.31355,9.1676 -7.40943,9.1676c-0.0958,0 -1.37838,-1.80445 -2.84656,-3.99777c-11.23161,-16.77898 -24.55927,-31.51787 -40.45882,-44.74962c-2.96712,-2.46921 -6.31454,-5.17713 -7.43039,-6.00705c-1.11579,-0.82992 -2.02555,-1.59776 -2.03024,-1.71631c-0.0107,-0.27354 16.97,-7.55631 29.93073,-12.83049c22.56343,-9.1818 53.40235,-20.17643 76.4804,-27.25164c12.16983,-3.731 25.09935,-7.44774 25.28417,-7.26288zm7.66059,2.00934c0.36443,-0.0743 2.78649,1.09783 5.69313,2.76283c24.30567,13.9231 48.12312,31.80286 66.85233,50.19158c5.32753,5.23064 18.36133,18.78851 18.16776,18.90029c-0.0496,0.0288 -4.55114,0.38526 -10.00483,0.79537c-42.11909,3.16765 -95.9679,12.12762 -147.81188,24.59348c-3.5211,0.8466 -6.56494,1.54887 -6.76058,1.54887c-0.19569,0 3.65828,-3.86858 8.56061,-8.58155c30.44591,-29.27002 44.33563,-47.75183 60.6778,-80.77121c2.43394,-4.91772 4.49766,-9.1603 4.5838,-9.41877c0.005,-0.0161 0.0176,-0.0161 0.0419,-0.0208l-0.00004,-0.00009zm-222.61781,22.81435c1.39073,0.31211 14.3752,6.35392 24.17481,11.26066c8.96171,4.48718 22.53499,11.71377 23.21207,12.34905c0.085,0.0798 -4.69643,2.57657 -10.63275,5.54658c-18.79353,9.40256 -34.89134,18.28202 -51.69857,28.54933c-4.79281,2.92787 -8.81001,5.33734 -8.9374,5.33734c-0.41928,0 -0.25405,-0.36249 2.42795,-5.27451c8.95032,-16.39245 16.17014,-35.96413 20.32364,-55.08934c0.37072,-1.70706 0.8168,-2.74944 1.13025,-2.67911zm-13.08165,2.34422c0.27106,0.27106 -3.09834,12.64697 -5.23265,19.25615c-4.09356,12.67624 -11.01506,28.61129 -17.66543,40.60536c-1.56186,2.81683 -3.95826,6.94005 -5.31637,9.16761l-2.46981,4.03957l-5.6094,-5.42099c-6.51822,-6.3191 -11.8277,-10.2432 -18.60727,-13.73048c-2.66471,-1.37063 -4.83165,-2.63919 -4.835,-2.82566c-0.0127,-0.82436 17.05298,-16.34402 30.22378,-27.48184c9.42775,-7.97252 29.27116,-23.8507 29.51215,-23.60972zm79.49441,32.6936l4.87686,3.16048c11.18772,7.26376 24.43495,17.0353 34.53549,25.45161c5.66023,4.71652 16.66073,14.56689 18.92123,16.95379l1.21398,1.2768l-8.10015,2.2605c-45.81343,12.711 -81.20818,24.02665 -122.50676,39.20298c-4.5833,1.68429 -8.54082,3.07683 -8.81181,3.07683c-0.56972,0 -1.13595,0.5237 9.1676,-8.9583c26.41535,-24.3091 49.75019,-51.09249 67.18722,-77.15018l3.51634,-5.27451zm-20.88874,5.23265c0.23931,0.23931 -13.53845,19.53585 -21.72596,30.43309c-9.79532,13.03718 -27.24126,34.83112 -39.24484,49.01946c-5.01517,5.92788 -9.31167,10.84673 -9.54435,10.92577c-0.25525,0.0867 -0.41392,-1.36548 -0.41861,-3.66289c-0.0234,-12.10619 -3.08614,-25.04478 -8.49783,-36.00063c-2.28575,-4.62744 -2.66873,-5.74744 -2.19774,-6.17449c1.88342,-1.70754 31.02524,-18.32389 49.39621,-28.17259c12.61891,-6.76503 31.99307,-16.60777 32.23312,-16.36772zm-126.33709,30.95632c0.2503,0 2.58796,1.17446 5.19079,2.61636c6.37804,3.53321 12.10807,7.42075 17.16309,11.63741c0.19504,0.16269 -2.42259,2.30096 -5.81871,4.75121c-9.47945,6.83932 -23.91439,17.73368 -32.27498,24.38418c-8.82079,7.01654 -9.11335,7.23167 -8.12107,5.71402c6.60583,-10.10288 9.92713,-15.82286 13.39558,-23.12828c3.08333,-6.49424 6.15621,-14.2034 8.35134,-20.9097c0.91191,-2.78608 1.86367,-5.0652 2.11396,-5.0652zm33.6564,26.41441c0.45539,-0.0563 1.10346,0.79175 3.80937,4.835c5.70277,8.52113 10.06986,19.88474 11.1979,29.1354l0.23021,1.98837l-13.66765,5.29547c-24.53414,9.52085 -47.11769,18.90539 -62.37318,25.89112c-4.2681,1.95442 -11.80338,5.55455 -16.72358,8.01645c-4.92013,2.46184 -8.93733,4.3967 -8.93733,4.29074c0,-0.10589 3.08982,-2.42902 6.86523,-5.16982c29.9406,-21.73594 55.7553,-45.53279 75.20361,-69.32214c2.08,-2.54429 3.96918,-4.75075 4.20708,-4.89776c0.063,-0.0389 0.12331,-0.0549 0.18834,-0.063l0,0.00017zm-15.5305,3.85123c0.39604,0.39604 -11.04714,13.33711 -18.75382,21.20273c-19.2889,19.68682 -38.41143,35.12141 -62.10105,50.14971c-2.96397,1.88027 -5.67236,3.58037 -6.02801,3.78841c-0.65029,0.38037 0.21024,-0.59758 10.61178,-11.93044c6.55473,-7.14159 11.57171,-13.07014 17.26778,-20.47013c3.75116,-4.87324 4.46763,-5.55689 9.96296,-9.52339c14.80266,-10.68458 48.64666,-33.61058 49.04036,-33.21689z" id="svg_46"/>
     </g>
     <g stroke="null" id="svg_42" transform="matrix(1.8380709,0,0,1.8380709,2496.9186,575.45866) ">
      <path fill="#231f1f" fill-rule="nonzero" d="m3457.928182,2750.552533l-1.97073,0l0,6.1202l-0.80331,0l0,-6.1202l-1.9765,0l0,-0.7224l4.75054,0" id="svg_44"/>
      <path fill="#231f1f" fill-rule="nonzero" d="m3465.990212,2756.672733l-0.80331,0l0,-4.60027c0,-0.3583 0.0244,-0.80331 0.0693,-1.32343l-0.0244,0c-0.0752,0.30638 -0.13857,0.52589 -0.20228,0.6646l-2.33483,5.2591l-0.39297,0l-2.34061,-5.22442c-0.0637,-0.14449 -0.133,-0.38144 -0.20228,-0.69928l-0.0174,0c0.0244,0.27156 0.0348,0.71662 0.0348,1.33498l0,4.58872l-0.77445,0l0,-6.84838l1.06338,0l2.09788,4.7794c0.16189,0.35833 0.26599,0.62996 0.31195,0.82065l0.0348,0c0.13857,-0.37563 0.24859,-0.65882 0.32936,-0.84376l2.14411,-4.75629l1.00559,0" id="svg_43"/>
     </g>
    </g>
   </g>
  </g>
  <rect id="svg_78" height="89.000115" width="194.00025" y="322.500157" x="-52.500443" stroke-opacity="null" stroke-width="null" stroke="null" fill="#ffffff"/>
 </g>
</svg>